<svg width="530" height="38" viewBox="0 0 530 38" fill="none" xmlns="http://www.w3.org/2000/svg">
<path d="M520.267 1.07958L51.8357 0C44.9213 0 39.2729 0.687003 35.0852 1.76658C22.2302 6.08488 5.67442 16.9788 0.999854 28.2653C0.51292 30.7188 6.45351 34.0557 7.81693 35.626C9.08295 38.6684 485.5 36.7056 487.643 37.7851C497.673 37.7851 509.36 34.1538 516.664 26.7931C526.889 16.4881 537.115 1.17772 520.17 1.17772L520.267 1.07958Z" fill="#ECEB6F"/>
<path d="M214.786 24V22.863L219.746 15.4586L214.814 15.5012V14.0516H221.892V15.1886L216.946 22.5788L221.977 22.5504V24H214.786ZM224.459 24L227.585 14.0516H229.604L232.73 24H230.996L230.271 21.5982H226.846L226.136 24H224.459ZM227.23 20.2765H229.902L228.566 15.8565L227.23 20.2765ZM235.269 24V14.0516H237.173L238.822 18.0452L240.47 14.0516H242.375V24H240.882V16.354L238.807 21.2855L236.732 16.354V24H235.269ZM249.049 24.1563C248.348 24.1563 247.703 23.9574 247.116 23.5594C246.528 23.1615 246.059 22.5835 245.709 21.8256C245.358 21.0581 245.183 20.1249 245.183 19.0258C245.183 17.9267 245.358 16.9982 245.709 16.2403C246.059 15.4728 246.528 14.8901 247.116 14.4922C247.703 14.0942 248.348 13.8953 249.049 13.8953C249.75 13.8953 250.389 14.0942 250.967 14.4922C251.555 14.8901 252.024 15.4728 252.374 16.2403C252.734 16.9982 252.914 17.9267 252.914 19.0258C252.914 20.1249 252.734 21.0581 252.374 21.8256C252.024 22.5835 251.555 23.1615 250.967 23.5594C250.389 23.9574 249.75 24.1563 249.049 24.1563ZM249.049 22.6214C249.447 22.6214 249.807 22.4888 250.129 22.2235C250.46 21.9487 250.721 21.5461 250.91 21.0155C251.1 20.4754 251.195 19.8122 251.195 19.0258C251.195 18.2394 251.1 17.5809 250.91 17.0503C250.721 16.5103 250.46 16.1076 250.129 15.8423C249.807 15.5676 249.447 15.4302 249.049 15.4302C248.651 15.4302 248.286 15.5676 247.954 15.8423C247.632 16.1076 247.376 16.5103 247.187 17.0503C246.997 17.5809 246.903 18.2394 246.903 19.0258C246.903 19.8122 246.997 20.4754 247.187 21.0155C247.376 21.5461 247.632 21.9487 247.954 22.2235C248.286 22.4888 248.651 22.6214 249.049 22.6214ZM248.224 12.602L249.972 10.7118H251.991L249.631 12.602H248.224ZM256.419 24L255.254 14.0516H256.76L257.386 20.6175L258.665 14.0516H259.944L261.223 20.5607L261.848 14.0516H263.298L262.147 24H260.612L259.29 16.9793L257.954 24H256.419ZM276.177 24V14.0516H278.081L279.73 18.0452L281.378 14.0516H283.283V24H281.791V16.354L279.716 21.2855L277.641 16.354V24H276.177ZM286.93 24V14.0516H293.439V15.5012H288.635V18.2726H291.748V19.6938H288.635V22.5504H293.496V24H286.93ZM297.086 24V14.0516H300.468C301.131 14.0516 301.709 14.1795 302.202 14.4353C302.704 14.6817 303.093 15.0322 303.367 15.487C303.652 15.9323 303.794 16.4534 303.794 17.0503C303.794 17.7041 303.623 18.2678 303.282 18.7416C302.941 19.2153 302.477 19.5611 301.889 19.779L304.064 24H302.231L300.255 20.0206H298.791V24H297.086ZM298.791 18.6563H300.326C300.857 18.6563 301.278 18.5142 301.591 18.2299C301.913 17.9362 302.074 17.5525 302.074 17.0788C302.074 16.5956 301.913 16.2118 301.591 15.9276C301.278 15.6339 300.857 15.487 300.326 15.487H298.791V18.6563ZM310.525 24.1563C309.824 24.1563 309.179 23.9574 308.592 23.5594C308.005 23.1615 307.536 22.5835 307.185 21.8256C306.834 21.0581 306.659 20.1249 306.659 19.0258C306.659 17.9267 306.834 16.9982 307.185 16.2403C307.536 15.4728 308.005 14.8901 308.592 14.4922C309.179 14.0942 309.824 13.8953 310.525 13.8953C311.112 13.8953 311.648 14.0232 312.131 14.279C312.623 14.5253 313.045 14.8901 313.396 15.3733C313.756 15.8471 314.016 16.425 314.177 17.1072L312.642 17.5478C312.5 16.8561 312.235 16.3303 311.846 15.9702C311.467 15.6102 311.036 15.4302 310.553 15.4302C310.146 15.4302 309.776 15.5628 309.445 15.8281C309.123 16.0934 308.862 16.4961 308.663 17.0361C308.474 17.5667 308.379 18.2299 308.379 19.0258C308.379 19.8217 308.474 20.4896 308.663 21.0297C308.862 21.5603 309.123 21.9582 309.445 22.2235C309.776 22.4888 310.146 22.6214 310.553 22.6214C311.036 22.6214 311.467 22.4414 311.846 22.0814C312.235 21.7213 312.5 21.1955 312.642 20.5039L314.177 20.9444C314.016 21.6171 313.756 22.1951 313.396 22.6783C313.045 23.1615 312.623 23.531 312.131 23.7868C311.648 24.0332 311.112 24.1563 310.525 24.1563ZM317.227 24V14.0516H318.933V18.2441H322.344V14.0516H324.049V24H322.344V19.7364H318.933V24H317.227Z" fill="#263133"/>
</svg>
