<svg width="529" height="38" viewBox="0 0 529 38" fill="none" xmlns="http://www.w3.org/2000/svg">
<path d="M519.296 1.07958L50.8642 0C43.9497 0 38.3013 0.687003 34.1137 1.76658C21.2586 6.08488 4.70286 16.9788 0.0282959 28.2653C-0.458638 30.7188 5.48195 34.0557 6.84537 35.626C8.1114 38.6684 484.528 36.7056 486.671 37.7851C496.702 37.7851 508.388 34.1538 515.692 26.7931C525.918 16.4881 536.144 1.17772 519.198 1.17772L519.296 1.07958Z" fill="#ECEB6F"/>
<path d="M213.814 24V22.863L218.774 15.4586L213.843 15.5012V14.0516H220.92V15.1886L215.975 22.5788L221.006 22.5504V24H213.814ZM223.487 24L226.614 14.0516H228.632L231.759 24H230.025L229.3 21.5982H225.875L225.164 24H223.487ZM226.259 20.2765H228.93L227.594 15.8565L226.259 20.2765ZM234.297 24V14.0516H236.201L237.85 18.0452L239.499 14.0516H241.403V24H239.911V16.354L237.836 21.2855L235.761 16.354V24H234.297ZM248.077 24.1563C247.376 24.1563 246.732 23.9574 246.144 23.5594C245.557 23.1615 245.088 22.5835 244.737 21.8256C244.387 21.0581 244.211 20.1249 244.211 19.0258C244.211 17.9267 244.387 16.9982 244.737 16.2403C245.088 15.4728 245.557 14.8901 246.144 14.4922C246.732 14.0942 247.376 13.8953 248.077 13.8953C248.778 13.8953 249.418 14.0942 249.996 14.4922C250.583 14.8901 251.052 15.4728 251.403 16.2403C251.763 16.9982 251.943 17.9267 251.943 19.0258C251.943 20.1249 251.763 21.0581 251.403 21.8256C251.052 22.5835 250.583 23.1615 249.996 23.5594C249.418 23.9574 248.778 24.1563 248.077 24.1563ZM248.077 22.6214C248.475 22.6214 248.835 22.4888 249.157 22.2235C249.489 21.9487 249.749 21.5461 249.939 21.0155C250.128 20.4754 250.223 19.8122 250.223 19.0258C250.223 18.2394 250.128 17.5809 249.939 17.0503C249.749 16.5103 249.489 16.1076 249.157 15.8423C248.835 15.5676 248.475 15.4302 248.077 15.4302C247.679 15.4302 247.314 15.5676 246.983 15.8423C246.661 16.1076 246.405 16.5103 246.215 17.0503C246.026 17.5809 245.931 18.2394 245.931 19.0258C245.931 19.8122 246.026 20.4754 246.215 21.0155C246.405 21.5461 246.661 21.9487 246.983 22.2235C247.314 22.4888 247.679 22.6214 248.077 22.6214ZM247.253 12.602L249.001 10.7118H251.019L248.66 12.602H247.253ZM255.448 24L254.282 14.0516H255.789L256.414 20.6175L257.693 14.0516H258.972L260.251 20.5607L260.877 14.0516H262.326L261.175 24H259.64L258.318 16.9793L256.982 24H255.448ZM275.603 24V14.0516H279.099C279.772 14.0516 280.355 14.1843 280.847 14.4495C281.35 14.7054 281.738 15.0654 282.013 15.5297C282.288 15.9939 282.425 16.534 282.425 17.1498C282.425 17.7373 282.288 18.2631 282.013 18.7274C281.738 19.1916 281.35 19.5564 280.847 19.8217C280.355 20.0775 279.772 20.2054 279.099 20.2054H277.309V24H275.603ZM277.309 18.7984H278.829C279.436 18.7984 279.9 18.6468 280.222 18.3436C280.544 18.0404 280.705 17.6378 280.705 17.1356C280.705 16.6429 280.544 16.245 280.222 15.9418C279.9 15.6386 279.436 15.487 278.829 15.487H277.309V18.7984ZM286.072 24V20.7597L284.793 21.5555V20.0775L286.072 19.2674V14.0516H287.777V18.2868L290.591 16.5387V18.031L287.777 19.7648V22.5504H292.624V24H286.072ZM298.36 24V19.9212L295.091 14.0516H296.924L299.255 18.3578L301.6 14.0516H303.334L300.065 19.9354V24H298.36ZM308.587 24V15.5012H305.503V14.0516H313.376V15.5012H310.292V24H308.587ZM316.639 24V14.0516H323.149V15.5012H318.345V18.2726H321.457V19.6938H318.345V22.5504H323.205V24C322.741 24.2937 322.4 24.5732 322.182 24.8385C321.964 25.1038 321.855 25.3786 321.855 25.6628C321.855 25.8902 321.931 26.0702 322.083 26.2029C322.234 26.3355 322.438 26.4018 322.694 26.4018C322.817 26.4018 322.935 26.3876 323.049 26.3592C323.172 26.3308 323.276 26.2881 323.362 26.2313L323.589 26.9845C323.286 27.1835 322.897 27.283 322.424 27.283C321.969 27.283 321.599 27.1598 321.315 26.9135C321.04 26.6671 320.903 26.3402 320.903 25.9328C320.903 25.5823 321.007 25.2507 321.216 24.938C321.434 24.6348 321.775 24.3221 322.239 24H316.639Z" fill="#263133"/>
</svg>
