<svg width="559" height="37" viewBox="0 0 559 37" fill="none" xmlns="http://www.w3.org/2000/svg">
<g clip-path="url(#clip0_183_2)">
<path d="M550.04 0H50.8357C43.9212 0 38.2728 0.687003 34.0852 1.76658C21.2301 6.08488 4.67436 16.9788 -0.000207501 28.2653C-0.487141 30.7188 5.45345 34.0557 6.81687 35.626C8.08289 38.6684 515.273 35.626 517.416 36.7056C527.447 36.7056 539.133 33.0743 546.437 25.7135C556.663 15.4085 566.888 0.0981432 549.943 0.0981432L550.04 0Z" fill="#ECEB6F"/>
<path d="M208.945 24V22.863L213.905 15.4586L208.974 15.5012V14.0516H216.051V15.1886L211.106 22.5788L216.137 22.5504V24H208.945ZM218.618 24L221.745 14.0516H223.763L226.89 24H225.156L224.431 21.5982H221.006L220.295 24H218.618ZM221.39 20.2765H224.061L222.725 15.8565L221.39 20.2765ZM229.428 24V14.0516H231.332L232.981 18.0452L234.63 14.0516H236.534V24H235.042V16.354L232.967 21.2855L230.892 16.354V24H229.428ZM243.208 24.1563C242.507 24.1563 241.863 23.9574 241.275 23.5594C240.688 23.1615 240.219 22.5835 239.868 21.8256C239.518 21.0581 239.342 20.1249 239.342 19.0258C239.342 17.9267 239.518 16.9982 239.868 16.2403C240.219 15.4728 240.688 14.8901 241.275 14.4922C241.863 14.0942 242.507 13.8953 243.208 13.8953C243.909 13.8953 244.549 14.0942 245.127 14.4922C245.714 14.8901 246.183 15.4728 246.534 16.2403C246.894 16.9982 247.074 17.9267 247.074 19.0258C247.074 20.1249 246.894 21.0581 246.534 21.8256C246.183 22.5835 245.714 23.1615 245.127 23.5594C244.549 23.9574 243.909 24.1563 243.208 24.1563ZM243.208 22.6214C243.606 22.6214 243.966 22.4888 244.288 22.2235C244.62 21.9487 244.88 21.5461 245.07 21.0155C245.259 20.4754 245.354 19.8122 245.354 19.0258C245.354 18.2394 245.259 17.5809 245.07 17.0503C244.88 16.5103 244.62 16.1076 244.288 15.8423C243.966 15.5676 243.606 15.4302 243.208 15.4302C242.81 15.4302 242.445 15.5676 242.114 15.8423C241.792 16.1076 241.536 16.5103 241.346 17.0503C241.157 17.5809 241.062 18.2394 241.062 19.0258C241.062 19.8122 241.157 20.4754 241.346 21.0155C241.536 21.5461 241.792 21.9487 242.114 22.2235C242.445 22.4888 242.81 22.6214 243.208 22.6214ZM242.384 12.602L244.132 10.7118H246.15L243.791 12.602H242.384ZM250.578 24L249.413 14.0516H250.92L251.545 20.6175L252.824 14.0516H254.103L255.382 20.5607L256.007 14.0516H257.457L256.306 24H254.771L253.449 16.9793L252.113 24H250.578ZM270.734 24V14.0516H274.23C274.903 14.0516 275.486 14.1843 275.978 14.4495C276.481 14.7054 276.869 15.0654 277.144 15.5297C277.419 15.9939 277.556 16.534 277.556 17.1498C277.556 17.7373 277.419 18.2631 277.144 18.7274C276.869 19.1916 276.481 19.5564 275.978 19.8217C275.486 20.0775 274.903 20.2054 274.23 20.2054H272.44V24H270.734ZM272.44 18.7984H273.96C274.567 18.7984 275.031 18.6468 275.353 18.3436C275.675 18.0404 275.836 17.6378 275.836 17.1356C275.836 16.6429 275.675 16.245 275.353 15.9418C275.031 15.6386 274.567 15.487 273.96 15.487H272.44V18.7984ZM281.018 24V14.0516H284.401C285.064 14.0516 285.642 14.1795 286.134 14.4353C286.637 14.6817 287.025 15.0322 287.3 15.487C287.584 15.9323 287.726 16.4534 287.726 17.0503C287.726 17.7041 287.556 18.2678 287.215 18.7416C286.873 19.2153 286.409 19.5611 285.822 19.779L287.996 24H286.163L284.187 20.0206H282.724V24H281.018ZM282.724 18.6563H284.258C284.789 18.6563 285.211 18.5142 285.523 18.2299C285.845 17.9362 286.007 17.5525 286.007 17.0788C286.007 16.5956 285.845 16.2118 285.523 15.9276C285.211 15.6339 284.789 15.487 284.258 15.487H282.724V18.6563ZM291.316 24V14.0516H297.825V15.5012H293.022V18.2726H296.134V19.6938H293.022V22.5504H297.882V24H291.316ZM304.57 24.1563C303.869 24.1563 303.225 23.9574 302.638 23.5594C302.05 23.1615 301.581 22.5835 301.231 21.8256C300.88 21.0581 300.705 20.1249 300.705 19.0258C300.705 17.9267 300.88 16.9982 301.231 16.2403C301.581 15.4728 302.05 14.8901 302.638 14.4922C303.225 14.0942 303.869 13.8953 304.57 13.8953C305.272 13.8953 305.911 14.0942 306.489 14.4922C307.077 14.8901 307.546 15.4728 307.896 16.2403C308.256 16.9982 308.436 17.9267 308.436 19.0258C308.436 20.1249 308.256 21.0581 307.896 21.8256C307.546 22.5835 307.077 23.1615 306.489 23.5594C305.911 23.9574 305.272 24.1563 304.57 24.1563ZM304.57 22.6214C304.968 22.6214 305.328 22.4888 305.651 22.2235C305.982 21.9487 306.243 21.5461 306.432 21.0155C306.622 20.4754 306.716 19.8122 306.716 19.0258C306.716 18.2394 306.622 17.5809 306.432 17.0503C306.243 16.5103 305.982 16.1076 305.651 15.8423C305.328 15.5676 304.968 15.4302 304.57 15.4302C304.173 15.4302 303.808 15.5676 303.476 15.8423C303.154 16.1076 302.898 16.5103 302.709 17.0503C302.519 17.5809 302.424 18.2394 302.424 19.0258C302.424 19.8122 302.519 20.4754 302.709 21.0155C302.898 21.5461 303.154 21.9487 303.476 22.2235C303.808 22.4888 304.173 22.6214 304.57 22.6214ZM311.699 24V14.0516H315.082C315.745 14.0516 316.323 14.1795 316.816 14.4353C317.318 14.6817 317.706 15.0322 317.981 15.487C318.265 15.9323 318.407 16.4534 318.407 17.0503C318.407 17.7041 318.237 18.2678 317.896 18.7416C317.555 19.2153 317.09 19.5611 316.503 19.779L318.677 24H316.844L314.869 20.0206H313.405V24H311.699ZM313.405 18.6563H314.94C315.47 18.6563 315.892 18.5142 316.205 18.2299C316.527 17.9362 316.688 17.5525 316.688 17.0788C316.688 16.5956 316.527 16.2118 316.205 15.9276C315.892 15.6339 315.47 15.487 314.94 15.487H313.405V18.6563ZM323.476 22.5504H324.541C325.044 22.5504 325.484 22.4083 325.863 22.124C326.242 21.8398 326.541 21.4371 326.758 20.916C326.976 20.3949 327.085 19.7648 327.085 19.0258C327.085 18.2868 326.976 17.6567 326.758 17.1356C326.541 16.6145 326.242 16.2118 325.863 15.9276C325.484 15.6434 325.044 15.5012 324.541 15.5012H323.476V22.5504ZM321.77 24V14.0516H324.698C325.494 14.0516 326.199 14.2553 326.815 14.6627C327.431 15.0701 327.914 15.6481 328.265 16.3966C328.625 17.1356 328.805 18.012 328.805 19.0258C328.805 20.0301 328.625 20.9065 328.265 21.655C327.914 22.4035 327.431 22.9815 326.815 23.3889C326.199 23.7963 325.494 24 324.698 24H321.77ZM332.225 24V14.0516H338.734V15.5012H333.93V18.2726H337.042V19.6938H333.93V22.5504H338.79V24H332.225ZM342.381 24V14.0516H345.763C346.426 14.0516 347.004 14.1795 347.497 14.4353C347.999 14.6817 348.387 15.0322 348.662 15.487C348.946 15.9323 349.089 16.4534 349.089 17.0503C349.089 17.7041 348.918 18.2678 348.577 18.7416C348.236 19.2153 347.772 19.5611 347.184 19.779L349.359 24H347.525L345.55 20.0206H344.086V24H342.381ZM344.086 18.6563H345.621C346.151 18.6563 346.573 18.5142 346.886 18.2299C347.208 17.9362 347.369 17.5525 347.369 17.0788C347.369 16.5956 347.208 16.2118 346.886 15.9276C346.573 15.6339 346.151 15.487 345.621 15.487H344.086V18.6563Z" fill="#263133"/>
</g>
<defs>
<clipPath id="clip0_183_2">
<rect width="559" height="37" fill="white"/>
</clipPath>
</defs>
</svg>
