<svg width="53" height="52" viewBox="0 0 53 52" fill="none" xmlns="http://www.w3.org/2000/svg">
<g clip-path="url(#clip0_184_28)">
<path d="M26.5328 52.0644C41.1865 52.0644 53.0657 40.4094 53.0657 26.0322C53.0657 11.655 41.1865 0 26.5328 0C11.8792 0 0 11.655 0 26.0322C0 40.4094 11.8792 52.0644 26.5328 52.0644Z" fill="#ECEB6F"/>
<path d="M42.0322 18.5576V33.4424C42.0322 33.4424 41.9665 34.0867 41.9009 34.3445C41.1128 37.824 39.0111 40.0149 35.5303 40.9814C35.0706 41.1103 34.6109 41.1747 34.1512 41.2392H18.9802C18.9802 41.2392 18.7831 41.2392 18.7175 41.2392C17.8637 41.1747 17.0099 40.9814 16.2875 40.5948C12.938 39.0483 11.1648 36.4709 11.0991 32.798C11.0991 28.2875 11.0991 23.777 11.0991 19.202C11.0991 17.7199 11.4275 16.3668 12.2156 15.0781C13.9232 12.2429 16.4845 10.7608 19.8339 10.7608C24.3655 10.7608 28.8971 10.7608 33.4287 10.7608C34.0198 10.7608 34.6109 10.7608 35.202 10.8897C38.7484 11.6629 40.9814 13.7249 41.9665 17.14C42.0979 17.5911 42.1636 18.0421 42.2292 18.4932L42.0322 18.5576ZM39.2738 26.0322C39.2738 23.8414 39.2738 21.5861 39.2738 19.3953C39.2738 18.6865 39.2082 18.0421 38.9455 17.3333C38.0917 14.8848 35.9244 13.4672 33.2317 13.4672C28.7001 13.4672 24.2342 13.4672 19.7026 13.4672C19.0458 13.4672 18.3234 13.5316 17.6667 13.7893C15.171 14.627 13.7261 16.689 13.7261 19.3309C13.7261 23.777 13.7261 28.223 13.7261 32.6047C13.7261 33.2491 13.7918 33.9579 14.0545 34.6022C14.9083 37.0508 17.0099 38.4684 19.7026 38.5328C24.2342 38.5328 28.8315 38.5328 33.3631 38.5328C35.399 38.5328 37.0409 37.7596 38.223 36.1487C39.0111 35.1177 39.3395 33.9579 39.3395 32.6691C39.3395 30.4783 39.3395 28.2875 39.3395 26.0322H39.2738Z" fill="#263133"/>
<path d="M34.5452 26.0322C34.5452 30.3494 30.9331 33.8934 26.5328 33.8934C22.1326 33.8934 18.5204 30.285 18.5204 26.0322C18.5204 21.715 22.1326 18.171 26.5328 18.2354C30.9331 18.2354 34.5452 21.7794 34.5452 26.0967V26.0322ZM26.5328 20.8773C23.6431 20.8773 21.2788 23.197 21.2788 26.0322C21.2788 28.8674 23.6431 31.1871 26.5328 31.1871C29.4226 31.1871 31.7869 28.8674 31.7869 26.0322C31.7869 23.197 29.4226 20.8773 26.5328 20.8773Z" fill="#263133"/>
<path d="M34.8736 15.8513C35.9901 15.8513 36.9095 16.7534 36.9095 17.8488C36.9095 18.9442 35.9901 19.7819 34.8736 19.7819C33.7571 19.7819 32.8376 18.8798 32.8376 17.7844C32.8376 16.689 33.7571 15.8513 34.8736 15.8513Z" fill="#263133"/>
</g>
<defs>
<clipPath id="clip0_184_28">
<rect width="53" height="52" fill="white"/>
</clipPath>
</defs>
</svg>
