<svg width="222" height="23" viewBox="0 0 222 23" fill="none" xmlns="http://www.w3.org/2000/svg">
<g clip-path="url(#clip0_184_42)">
<path d="M11.5929 2.43269C12.9336 2.28526 13.4067 3.31731 13.5645 4.42308C13.6433 5.52885 13.7222 6.48718 14.3531 6.26603C15.6938 5.67628 16.9556 5.16026 18.2174 4.4968C19.4792 3.83333 20.5833 3.39103 21.7663 3.02244C23.7378 2.58013 26.3403 2.35897 29.6526 2.35897H34.6998C38.4853 2.35897 39.6682 3.98077 38.7218 6.33974C37.8544 8.55128 35.6462 11.2788 32.9648 13.7853C29.4948 17.0288 23.8167 18.7981 19.0849 18.6506H16.0881C12.5393 18.6506 9.93677 14.9647 8.67496 14.9647C8.43837 14.9647 8.20178 15.1122 8.20178 15.3333C8.20178 15.8494 9.93677 17.25 9.93677 18.1346C10.0945 19.7564 10.3311 21.1571 10.7254 22.4103C10.8043 22.7051 10.3311 23 9.77904 23H0.946359C0.394316 23 0 22.7788 0 22.484C0 21.8942 1.18295 20.8622 1.89272 19.7564C4.57407 15.4808 6.15133 10.6891 8.3595 6.26603C8.83268 4.86539 10.3311 2.43269 11.5929 2.43269ZM32.4128 8.77244C32.4128 7.66667 31.703 7.15064 30.9144 6.92949C29.1005 6.41346 26.8924 6.26603 24.6842 6.26603C21.0565 6.26603 17.271 6.85577 14.5108 7.8141C12.2238 8.625 10.3311 10.2468 10.3311 11.1314C10.3311 11.4263 10.6465 11.7212 11.1197 11.9423C11.6718 12.1635 12.3027 12.4583 13.1702 12.8269C15.1417 13.6378 21.1353 16.2917 24.2899 16.2917C29.3371 16.2917 32.4128 13.1955 32.4128 8.77244Z" fill="#ECEB6F"/>
<path d="M55.8352 7.44551C55.5197 8.18269 54.8888 8.40385 53.3904 8.40385H51.6554C51.1823 8.40385 50.9457 8.18269 50.7879 7.74039C50.7091 7.07692 47.9489 7.22436 47.2391 7.3718C45.3464 7.8141 44.1634 8.03526 43.0593 9.87821C42.7439 10.3942 42.665 10.9103 42.665 11.5737C42.665 13.7853 44.4 17.1763 44.4 18.2083C44.4 18.4295 43.9268 18.6506 43.3748 18.6506H35.5673C35.0153 18.6506 34.5421 18.4295 34.5421 18.2083C34.5421 17.1763 35.7251 16.5128 36.1982 15.7756C38.1698 12.8269 39.1162 9.21475 40.6146 6.04487C41.2455 4.4968 42.5862 2.13782 43.9268 2.13782C45.4252 1.99039 45.7407 2.80128 45.8984 3.90705C45.8984 4.86539 45.8984 5.82372 46.6871 5.82372C48.1855 5.82372 49.2107 2.21154 51.2611 2.13782H57.4913C58.2011 2.13782 58.2011 2.50641 58.2011 2.72757C58.3588 3.09616 57.4124 4.12821 55.6775 7.51923L55.8352 7.44551Z" fill="#ECEB6F"/>
<path d="M52.444 16.1442C51.892 15.9231 51.6554 15.1859 51.6554 14.8173C51.6554 14.6699 51.6554 14.5224 51.6554 14.4487C51.6554 14.3013 51.892 14.0064 52.1286 13.6378C54.8888 9.50961 61.9076 4.57051 67.5069 2.875C69.4785 2.43269 71.3712 2.21154 74.368 2.21154H79.4152C83.8316 2.21154 84.5414 4.1282 82.9641 6.70833C79.9673 10.7628 71.2135 14.6699 65.5353 15.3333C67.8224 16.0705 69.9517 16.6603 71.0557 16.6603C72.3176 16.6603 74.2891 15.0385 75.6298 13.6378C75.8664 13.4167 76.1819 13.2692 76.4973 13.2692H77.6014C78.5478 13.4904 79.3364 17.25 79.3364 18.0609C79.3364 18.2821 78.8632 18.5032 78.39 18.5032H74.0526H64.0369H56.0717C55.8351 18.5032 55.5986 18.5032 55.4408 18.3558C55.2831 18.2821 55.1254 18.1346 54.8888 18.0609L52.444 16.2179V16.1442ZM76.7339 7.8141C76.7339 7.15064 76.4973 7.0032 76.0241 6.85577C74.368 6.41346 71.8444 6.19231 69.4785 6.19231C65.6142 6.19231 58.5954 7.29808 56.466 10.3942C56.3083 10.6891 56.2295 10.8365 56.2295 10.984C56.2295 11.6474 57.3335 12.3109 58.9897 12.9744C59.6994 13.3429 61.5922 14.0064 63.8003 14.7436C64.8256 14.7436 66.876 14.7436 69.2419 14.0064C71.5289 13.2692 74.1314 11.8686 76.2607 9.06731C76.655 8.55128 76.7339 8.03526 76.7339 7.74038V7.8141Z" fill="#ECEB6F"/>
<path d="M93.2163 15.3333L91.7968 17.766C91.5602 18.1346 91.1659 18.3558 90.7716 18.3558H84.6203C84.0682 18.3558 83.8316 18.1346 83.4373 17.8397L80.9926 15.9968C80.4405 15.6282 80.2039 15.0385 80.2039 14.6699C80.2039 14.5224 80.2039 14.375 80.2039 14.3013C80.2039 14.1538 80.4405 13.9327 80.6771 13.5641C82.1755 11.2788 84.9357 8.69872 88.248 6.5609C91.6391 4.27564 95.1091 2.80128 97.9481 2.35897C99.9986 2.13782 101.497 2.0641 102.838 2.0641C104.021 2.0641 105.44 2.0641 106.781 2.13782C108.831 2.21154 109.147 2.43269 108.437 3.90705L103.311 14.2276C102.995 14.8173 103.153 15.0385 104.336 15.0385C106.387 15.0385 107.333 14.0064 108.91 11.0577C110.014 8.99359 111.039 7.51923 111.828 6.5609C112.617 5.60256 113.248 4.9391 113.563 4.57051C115.771 2.58013 119.083 2.13782 121.686 2.13782H127.443C128.074 2.13782 128.468 2.35897 128.468 2.72756C128.468 3.02244 128.232 3.61218 127.837 4.49679C127.364 5.38141 126.812 6.33974 126.102 7.44551C125.55 8.18269 124.446 8.625 123.342 8.625C120.661 8.625 119.478 9.58333 119.478 11.8686C119.478 14.1538 121.134 16.9551 121.134 17.9135C121.134 18.2083 120.74 18.4295 120.188 18.4295H111.355C110.803 18.4295 110.409 18.2083 110.409 17.9135C110.409 17.3974 111.513 16.4391 112.222 15.2596C112.617 14.5962 113.484 12.9744 114.115 11.6474L115.929 7.88782C116.166 7.3718 116.087 7.22436 115.298 7.15064C113.484 7.15064 112.144 8.03526 110.409 10.3942C108.831 12.6058 108.595 13.9327 107.333 15.4808C106.781 16.2179 105.046 18.4295 100.235 18.2821H95.1879C94.6359 18.2821 94.2416 17.9872 94.2416 17.6923C94.2416 17.1763 95.3457 16.2917 96.1343 14.9647C96.5286 14.4487 97.3172 12.9744 97.9481 11.6474C99.9197 7.44551 99.2888 6.26603 95.0302 6.26603C89.9041 6.26603 84.6991 8.99359 84.6991 10.9103C84.6991 11.4263 85.4089 11.9423 86.8284 12.6058C88.248 13.1955 90.2195 13.7115 92.6643 14.1538C93.2952 14.3013 93.5318 14.6699 93.2163 15.1859V15.3333Z" fill="#ECEB6F"/>
<path d="M129.572 5.89744C130.203 4.71795 131.386 3.39103 132.175 3.39103C133.989 3.39103 137.932 6.26603 137.932 7.51923C137.932 8.03526 137.143 8.33013 135.645 8.33013C132.49 8.40385 131.228 9.28846 131.228 11.5C131.228 13.7115 132.963 16.8077 132.963 17.9135C132.963 18.1346 132.49 18.3558 132.017 18.3558H124.446C123.894 18.3558 123.5 18.1346 123.5 17.9135C123.5 17.3974 124.604 16.2917 125.077 15.5545C126.97 12.6795 127.443 9.73077 129.651 5.82372L129.572 5.89744ZM142.9 2.50641C142.269 3.6859 141.086 5.01282 140.298 5.01282C138.484 5.01282 134.62 2.13782 134.62 0.884616C134.62 0.368591 135.408 0.0737187 136.907 0.0737187C140.14 7.82311e-07 144.004 0.73718 142.979 2.58013L142.9 2.50641Z" fill="#ECEB6F"/>
<path d="M137.222 16.1442C136.67 15.9231 136.433 15.1859 136.433 14.8173C136.433 14.6699 136.433 14.5224 136.433 14.4487C136.433 14.3013 136.67 14.0064 136.907 13.6378C139.667 9.50961 146.686 4.57051 152.285 2.875C154.257 2.43269 156.149 2.21154 159.146 2.21154H164.193C168.61 2.21154 169.319 4.1282 167.742 6.70833C164.745 10.7628 155.991 14.6699 150.313 15.3333C152.6 16.0705 154.73 16.6603 155.834 16.6603C157.096 16.6603 159.067 15.0385 160.408 13.6378C160.644 13.4167 160.96 13.2692 161.275 13.2692H162.379C163.326 13.4904 164.114 17.25 164.114 18.0609C164.114 18.2821 163.641 18.5032 163.168 18.5032H158.831H148.815H140.85C140.613 18.5032 140.377 18.5032 140.219 18.3558C140.061 18.2821 139.903 18.1346 139.667 18.0609L137.222 16.2179V16.1442ZM161.512 7.8141C161.512 7.15064 161.275 7.0032 160.802 6.85577C159.146 6.41346 156.622 6.19231 154.257 6.19231C150.392 6.19231 143.373 7.29808 141.244 10.3942C141.086 10.6891 141.007 10.8365 141.007 10.984C141.007 11.6474 142.112 12.3109 143.768 12.9744C144.477 13.3429 146.37 14.0064 148.578 14.7436C149.604 14.7436 151.654 14.7436 154.02 14.0064C156.307 13.2692 158.909 11.8686 161.039 9.06731C161.433 8.55128 161.512 8.03526 161.512 7.74038V7.8141Z" fill="#ECEB6F"/>
<path d="M187.537 7.44551C187.221 8.18269 186.59 8.40385 185.092 8.40385H183.436C182.963 8.40385 182.726 8.18269 182.568 7.74039C182.49 7.07692 179.65 7.22436 179.02 7.3718C177.127 7.8141 175.944 8.03526 174.84 9.87821C174.524 10.3942 174.445 10.9103 174.445 11.5737C174.445 13.7853 176.18 17.1763 176.18 18.2083C176.18 18.4295 175.707 18.6506 175.155 18.6506H167.348C166.796 18.6506 166.323 18.4295 166.323 18.2083C166.323 17.1763 167.506 16.5128 167.979 15.7756C169.95 12.8269 170.818 9.21475 172.395 6.04487C173.026 4.4968 174.367 2.13782 175.707 2.13782C177.127 1.99039 177.521 2.80128 177.679 3.90705C177.679 4.86539 177.679 5.82372 178.468 5.82372C179.966 5.82372 180.991 2.21154 183.042 2.13782H189.272C189.982 2.13782 189.982 2.50641 189.982 2.72757C190.139 3.09616 189.193 4.12821 187.458 7.51923L187.537 7.44551Z" fill="#ECEB6F"/>
<path d="M219.555 7.44551C219.161 8.18269 218.609 8.33013 217.189 8.33013C214.193 8.33013 213.01 9.4359 213.01 11.7949C213.01 13.9327 214.666 16.9551 214.666 17.9872C214.666 18.2083 214.193 18.4295 213.719 18.4295H206.148C205.596 18.4295 205.202 18.2083 205.202 17.9872C205.202 17.1026 206.937 15.7756 206.937 15.1859C206.937 14.9647 206.701 14.8173 206.464 14.8173C205.281 14.8173 202.679 18.4295 199.051 18.4295H187.537C186.985 18.4295 186.748 18.2821 186.354 17.9872L183.909 16.1442C183.357 15.7756 183.12 15.1859 183.12 14.8173C183.12 14.6699 183.12 14.5224 183.12 14.4487C183.12 14.375 183.357 14.0801 183.594 13.7115C186.354 9.50962 193.452 4.57051 199.051 2.94872C201.022 2.50641 203.625 2.28526 206.937 2.28526H208.357C209.382 2.43269 209.618 3.31731 209.618 4.34936C209.618 5.30769 209.618 6.19231 210.328 6.19231C211.827 6.19231 212.931 2.65385 214.35 2.65385H221.211C221.763 2.65385 222 2.875 222 3.09615C222 4.20192 220.502 5.89744 219.634 7.59295L219.555 7.44551ZM209.145 8.33013C209.145 7.22436 208.751 7.00321 207.962 6.78205C206.464 6.41346 204.413 6.19231 202.205 6.19231C198.814 6.19231 194.477 6.70833 191.795 7.74039C189.508 8.55128 187.616 10.1731 187.616 11.0577C187.616 11.3526 187.852 11.7212 188.404 12.016C188.956 12.3109 189.587 12.6795 190.376 13.0481C191.164 13.4167 193.136 14.0801 195.739 14.891C198.341 15.7019 200.47 16.218 201.496 16.218C203.546 16.218 206.779 13.1955 208.593 10.0256C208.83 9.4359 209.066 8.84616 209.066 8.33013H209.145Z" fill="#ECEB6F"/>
</g>
<defs>
<clipPath id="clip0_184_42">
<rect width="222" height="23" fill="white"/>
</clipPath>
</defs>
</svg>
