<svg width="53" height="53" viewBox="0 0 53 53" fill="none" xmlns="http://www.w3.org/2000/svg">
<g clip-path="url(#clip0_184_37)">
<path d="M26.5328 53.0657C41.1865 53.0657 53.0657 41.1865 53.0657 26.5328C53.0657 11.8792 41.1865 0 26.5328 0C11.8792 0 0 11.8792 0 26.5328C0 41.1865 11.8792 53.0657 26.5328 53.0657Z" fill="#ECEB6F"/>
<path d="M26.2044 37.5006C23.8401 37.4349 21.1474 37.3693 18.5204 37.2379C17.3383 37.2379 16.0904 37.0409 14.9083 36.9095C12.8723 36.6468 11.6245 35.4647 11.2961 33.4288C11.0991 32.3123 10.9678 31.1301 10.9021 30.0136C10.8364 28.109 10.7707 26.2045 10.8364 24.2342C10.8364 22.5266 10.9678 20.8848 11.3618 19.1772C11.7559 17.404 13.0694 16.1561 14.8426 15.9591C16.5502 15.7621 18.2577 15.6307 19.9653 15.5651C23.052 15.4994 26.0731 15.4337 29.1598 15.4337C31.5241 15.4337 33.8228 15.5651 36.1871 15.6964C36.9095 15.6964 37.5663 15.8278 38.2887 15.9591C40.1933 16.2875 41.3098 17.404 41.6381 19.3742C41.9008 20.8191 42.0322 22.3296 42.0979 23.7745C42.2292 25.8761 42.2292 28.0434 42.0979 30.145C42.0322 31.3271 41.8352 32.5093 41.6381 33.6915C41.3098 35.4647 39.9963 36.7125 38.1574 36.9095C36.4498 37.1066 34.7422 37.2379 32.969 37.3036C30.8017 37.3693 28.6344 37.4349 26.2044 37.5006ZM23.3147 21.7385V31.1958C26.0731 29.6196 28.7658 28.0434 31.5241 26.4672C28.7658 24.891 26.0731 23.3147 23.3147 21.7385Z" fill="#263133"/>
</g>
<defs>
<clipPath id="clip0_184_37">
<rect width="53" height="53" fill="white"/>
</clipPath>
</defs>
</svg>
